<svg width="264" height="48" viewBox="0 0 264 48" fill="none" xmlns="http://www.w3.org/2000/svg">
<g filter="url(#filter0_d_1_853)">
<path d="M1 12C1 5.37258 6.37258 0 13 0H251C257.627 0 263 5.37258 263 12V34C263 40.6274 257.627 46 251 46H13C6.37258 46 1 40.6274 1 34V12Z" fill="black"/>
</g>
<g clip-path="url(#clip0_1_853)">
<path fill-rule="evenodd" clip-rule="evenodd" d="M48.0676 9.4668C44.7157 9.46781 41.4775 10.6414 38.9512 12.7708C36.3958 14.9258 34.7072 17.8819 34.1815 21.1204C33.6456 24.3704 34.3006 27.6992 36.0334 30.5321C37.7443 33.3371 40.4368 35.4578 43.6243 36.5111C44.332 36.6389 44.5821 36.204 44.5821 35.8381V33.4787C40.6572 34.3215 39.8288 31.6129 39.8288 31.6129C39.5721 30.7781 39.0193 30.0574 38.2676 29.5773C36.9989 28.7252 38.3709 28.7252 38.3709 28.7252C38.815 28.7877 39.2399 28.9492 39.6116 29.1965C39.9843 29.4439 40.2942 29.7724 40.5192 30.1569C40.7094 30.4985 40.9672 30.7991 41.2761 31.0427C41.7372 31.4095 42.3027 31.632 42.8977 31.6807C43.4927 31.7294 44.0889 31.6019 44.6072 31.3152C44.6622 30.6143 44.9683 29.9553 45.4703 29.4579C42.3479 29.1088 39.069 27.916 39.069 22.6445C39.0456 21.272 39.5606 19.9418 40.5105 18.9215C40.0892 17.7229 40.1383 16.4165 40.6486 15.2507C40.6486 15.2507 41.8303 14.8755 44.5126 16.6731C46.8146 16.0485 49.2501 16.0485 51.5521 16.6731C54.2353 14.8755 55.4084 15.2507 55.4084 15.2507C55.9259 16.4015 55.9877 17.7025 55.5812 18.8963C56.5306 19.9165 57.0452 21.2463 57.0218 22.6184C57.0218 27.9505 53.7352 29.1172 50.603 29.4317C50.939 29.7659 51.1988 30.1663 51.3639 30.6077C51.528 31.0483 51.5956 31.5187 51.5608 31.9881V35.7952C51.5608 36.2469 51.8119 36.596 52.5263 36.4597C55.6777 35.3791 58.33 33.2525 60.011 30.4584C61.7132 27.6369 62.3512 24.3324 61.8166 21.1073C61.292 17.8934 59.6219 14.9577 57.0952 12.8081C54.5973 10.6848 51.3937 9.49903 48.0676 9.4668Z" fill="#F9F9F9"/>
</g>
<path d="M87.3057 23.6846C87.2282 24.7555 86.8317 25.5986 86.1162 26.2139C85.4053 26.8291 84.4665 27.1367 83.2998 27.1367C82.0238 27.1367 81.0189 26.7083 80.2852 25.8516C79.556 24.9902 79.1914 23.8099 79.1914 22.3105V21.7021C79.1914 20.7451 79.36 19.902 79.6973 19.1729C80.0345 18.4437 80.5153 17.8854 81.1396 17.498C81.7686 17.1061 82.4977 16.9102 83.3271 16.9102C84.4756 16.9102 85.4007 17.2178 86.1025 17.833C86.8044 18.4482 87.21 19.3118 87.3193 20.4238H85.2686C85.2184 19.7812 85.0384 19.3164 84.7285 19.0293C84.4232 18.7376 83.9561 18.5918 83.3271 18.5918C82.6436 18.5918 82.1309 18.8379 81.7891 19.3301C81.4518 19.8177 81.2786 20.5765 81.2695 21.6064V22.3584C81.2695 23.4339 81.4313 24.2201 81.7549 24.7168C82.083 25.2135 82.598 25.4619 83.2998 25.4619C83.9333 25.4619 84.4049 25.3184 84.7148 25.0312C85.0293 24.7396 85.2093 24.2907 85.2549 23.6846H87.3057ZM88.2148 23.2334C88.2148 22.4997 88.3561 21.8457 88.6387 21.2715C88.9212 20.6973 89.3268 20.2529 89.8555 19.9385C90.3887 19.624 91.0062 19.4668 91.708 19.4668C92.7061 19.4668 93.5195 19.7721 94.1484 20.3828C94.7819 20.9935 95.1351 21.8229 95.208 22.8711L95.2217 23.377C95.2217 24.5117 94.9049 25.4232 94.2715 26.1113C93.638 26.7949 92.7881 27.1367 91.7217 27.1367C90.6553 27.1367 89.8031 26.7949 89.165 26.1113C88.5316 25.4277 88.2148 24.498 88.2148 23.3223V23.2334ZM90.1904 23.377C90.1904 24.0788 90.3226 24.6165 90.5869 24.9902C90.8512 25.3594 91.2295 25.5439 91.7217 25.5439C92.2002 25.5439 92.5739 25.3617 92.8428 24.9971C93.1117 24.6279 93.2461 24.04 93.2461 23.2334C93.2461 22.5452 93.1117 22.012 92.8428 21.6338C92.5739 21.2555 92.1956 21.0664 91.708 21.0664C91.2249 21.0664 90.8512 21.2555 90.5869 21.6338C90.3226 22.0075 90.1904 22.5885 90.1904 23.377ZM98.2568 19.6035L98.3184 20.458C98.847 19.7972 99.5557 19.4668 100.444 19.4668C101.228 19.4668 101.812 19.6969 102.194 20.1572C102.577 20.6175 102.773 21.3057 102.782 22.2217V27H100.807V22.2695C100.807 21.8503 100.715 21.5472 100.533 21.3604C100.351 21.1689 100.048 21.0732 99.624 21.0732C99.068 21.0732 98.651 21.3102 98.373 21.7842V27H96.3975V19.6035H98.2568ZM106.651 17.7852V19.6035H107.916V21.0527H106.651V24.7441C106.651 25.0176 106.704 25.2135 106.809 25.332C106.913 25.4505 107.114 25.5098 107.41 25.5098C107.629 25.5098 107.823 25.4938 107.991 25.4619V26.959C107.604 27.0775 107.205 27.1367 106.795 27.1367C105.41 27.1367 104.703 26.4372 104.676 25.0381V21.0527H103.596V19.6035H104.676V17.7852H106.651ZM111.102 27H109.119V19.6035H111.102V27ZM109.003 17.6895C109.003 17.3932 109.101 17.1494 109.297 16.958C109.497 16.7666 109.769 16.6709 110.11 16.6709C110.448 16.6709 110.716 16.7666 110.917 16.958C111.118 17.1494 111.218 17.3932 111.218 17.6895C111.218 17.9902 111.115 18.2363 110.91 18.4277C110.71 18.6191 110.443 18.7148 110.11 18.7148C109.778 18.7148 109.509 18.6191 109.304 18.4277C109.103 18.2363 109.003 17.9902 109.003 17.6895ZM114.554 19.6035L114.615 20.458C115.144 19.7972 115.853 19.4668 116.741 19.4668C117.525 19.4668 118.108 19.6969 118.491 20.1572C118.874 20.6175 119.07 21.3057 119.079 22.2217V27H117.104V22.2695C117.104 21.8503 117.012 21.5472 116.83 21.3604C116.648 21.1689 116.345 21.0732 115.921 21.0732C115.365 21.0732 114.948 21.3102 114.67 21.7842V27H112.694V19.6035H114.554ZM125.013 26.248C124.525 26.8405 123.851 27.1367 122.989 27.1367C122.196 27.1367 121.59 26.9089 121.171 26.4531C120.756 25.9974 120.544 25.3298 120.535 24.4502V19.6035H122.511V24.3818C122.511 25.152 122.862 25.5371 123.563 25.5371C124.233 25.5371 124.694 25.3047 124.944 24.8398V19.6035H126.927V27H125.067L125.013 26.248ZM131.821 27.1367C130.737 27.1367 129.853 26.804 129.169 26.1387C128.49 25.4733 128.15 24.5869 128.15 23.4795V23.2881C128.15 22.5452 128.294 21.8822 128.581 21.2988C128.868 20.7109 129.274 20.2598 129.798 19.9453C130.326 19.6263 130.928 19.4668 131.603 19.4668C132.614 19.4668 133.41 19.7858 133.988 20.4238C134.572 21.0618 134.863 21.9665 134.863 23.1377V23.9443H130.153C130.217 24.4274 130.409 24.8148 130.728 25.1064C131.051 25.3981 131.459 25.5439 131.951 25.5439C132.712 25.5439 133.307 25.2682 133.735 24.7168L134.706 25.8037C134.41 26.223 134.009 26.5511 133.503 26.7881C132.997 27.0205 132.437 27.1367 131.821 27.1367ZM131.596 21.0664C131.204 21.0664 130.885 21.1986 130.639 21.4629C130.397 21.7272 130.242 22.1055 130.174 22.5977H132.922V22.4404C132.913 22.0029 132.794 21.6657 132.566 21.4287C132.339 21.1872 132.015 21.0664 131.596 21.0664ZM145.91 24.3135L146.881 19.6035H148.788L146.901 27H145.247L143.846 22.3447L142.444 27H140.797L138.91 19.6035H140.817L141.781 24.3066L143.135 19.6035H144.563L145.91 24.3135ZM151.857 27H149.875V19.6035H151.857V27ZM149.759 17.6895C149.759 17.3932 149.857 17.1494 150.053 16.958C150.253 16.7666 150.524 16.6709 150.866 16.6709C151.203 16.6709 151.472 16.7666 151.673 16.958C151.873 17.1494 151.974 17.3932 151.974 17.6895C151.974 17.9902 151.871 18.2363 151.666 18.4277C151.465 18.6191 151.199 18.7148 150.866 18.7148C150.534 18.7148 150.265 18.6191 150.06 18.4277C149.859 18.2363 149.759 17.9902 149.759 17.6895ZM155.856 17.7852V19.6035H157.121V21.0527H155.856V24.7441C155.856 25.0176 155.909 25.2135 156.014 25.332C156.118 25.4505 156.319 25.5098 156.615 25.5098C156.834 25.5098 157.028 25.4938 157.196 25.4619V26.959C156.809 27.0775 156.41 27.1367 156 27.1367C154.615 27.1367 153.908 26.4372 153.881 25.0381V21.0527H152.801V19.6035H153.881V17.7852H155.856ZM160.149 20.4102C160.674 19.7812 161.332 19.4668 162.125 19.4668C163.729 19.4668 164.543 20.3988 164.565 22.2627V27H162.59V22.3174C162.59 21.8936 162.499 21.5814 162.316 21.3809C162.134 21.1758 161.831 21.0732 161.407 21.0732C160.828 21.0732 160.409 21.2965 160.149 21.7432V27H158.174V16.5H160.149V20.4102ZM177.547 25.7422C177.178 26.1842 176.656 26.5283 175.981 26.7744C175.307 27.016 174.56 27.1367 173.739 27.1367C172.878 27.1367 172.121 26.9499 171.47 26.5762C170.823 26.1979 170.321 25.651 169.966 24.9355C169.615 24.2201 169.435 23.3792 169.426 22.4131V21.7363C169.426 20.7428 169.592 19.8838 169.925 19.1592C170.262 18.43 170.745 17.874 171.374 17.4912C172.007 17.1038 172.748 16.9102 173.596 16.9102C174.776 16.9102 175.699 17.1927 176.364 17.7578C177.03 18.3184 177.424 19.1364 177.547 20.2119H175.551C175.46 19.6423 175.257 19.2253 174.942 18.9609C174.632 18.6966 174.204 18.5645 173.657 18.5645C172.96 18.5645 172.429 18.8265 172.064 19.3506C171.7 19.8747 171.515 20.654 171.511 21.6885V22.3242C171.511 23.3678 171.709 24.1562 172.105 24.6895C172.502 25.2227 173.083 25.4893 173.849 25.4893C174.619 25.4893 175.168 25.3252 175.496 24.9971V23.2812H173.63V21.7705H177.547V25.7422ZM181.17 27H179.188V19.6035H181.17V27ZM179.071 17.6895C179.071 17.3932 179.169 17.1494 179.365 16.958C179.566 16.7666 179.837 16.6709 180.179 16.6709C180.516 16.6709 180.785 16.7666 180.985 16.958C181.186 17.1494 181.286 17.3932 181.286 17.6895C181.286 17.9902 181.184 18.2363 180.979 18.4277C180.778 18.6191 180.511 18.7148 180.179 18.7148C179.846 18.7148 179.577 18.6191 179.372 18.4277C179.172 18.2363 179.071 17.9902 179.071 17.6895ZM185.169 17.7852V19.6035H186.434V21.0527H185.169V24.7441C185.169 25.0176 185.221 25.2135 185.326 25.332C185.431 25.4505 185.632 25.5098 185.928 25.5098C186.146 25.5098 186.34 25.4938 186.509 25.4619V26.959C186.121 27.0775 185.723 27.1367 185.312 27.1367C183.927 27.1367 183.221 26.4372 183.193 25.0381V21.0527H182.113V19.6035H183.193V17.7852H185.169ZM195.765 27H193.714V22.7344H189.715V27H187.664V17.0469H189.715V21.0801H193.714V17.0469H195.765V27ZM201.862 26.248C201.375 26.8405 200.7 27.1367 199.839 27.1367C199.046 27.1367 198.44 26.9089 198.021 26.4531C197.606 25.9974 197.394 25.3298 197.385 24.4502V19.6035H199.36V24.3818C199.36 25.152 199.711 25.5371 200.413 25.5371C201.083 25.5371 201.543 25.3047 201.794 24.8398V19.6035H203.776V27H201.917L201.862 26.248ZM211.932 23.3701C211.932 24.555 211.679 25.4801 211.173 26.1455C210.667 26.8063 209.961 27.1367 209.054 27.1367C208.252 27.1367 207.611 26.8291 207.133 26.2139L207.044 27H205.267V16.5H207.242V20.2666C207.698 19.7334 208.297 19.4668 209.04 19.4668C209.942 19.4668 210.649 19.7995 211.159 20.4648C211.674 21.1257 211.932 22.0576 211.932 23.2607V23.3701ZM209.956 23.2266C209.956 22.4792 209.838 21.9346 209.601 21.5928C209.364 21.2464 209.01 21.0732 208.541 21.0732C207.912 21.0732 207.479 21.3307 207.242 21.8457V24.7646C207.484 25.2842 207.921 25.5439 208.555 25.5439C209.193 25.5439 209.612 25.2295 209.812 24.6006C209.908 24.2998 209.956 23.8418 209.956 23.2266Z" fill="white"/>
<defs>
<filter id="filter0_d_1_853" x="0" y="0" width="264" height="48" filterUnits="userSpaceOnUse" color-interpolation-filters="sRGB">
<feFlood flood-opacity="0" result="BackgroundImageFix"/>
<feColorMatrix in="SourceAlpha" type="matrix" values="0 0 0 0 0 0 0 0 0 0 0 0 0 0 0 0 0 0 127 0" result="hardAlpha"/>
<feOffset dy="1"/>
<feGaussianBlur stdDeviation="0.5"/>
<feColorMatrix type="matrix" values="0 0 0 0 0 0 0 0 0 0 0 0 0 0 0 0 0 0 0.1 0"/>
<feBlend mode="normal" in2="BackgroundImageFix" result="effect1_dropShadow_1_853"/>
<feBlend mode="normal" in="SourceGraphic" in2="effect1_dropShadow_1_853" result="shape"/>
</filter>
<clipPath id="clip0_1_853">
<rect width="28" height="28" fill="white" transform="translate(34 9)"/>
</clipPath>
</defs>
</svg>
