<svg width="264" height="48" viewBox="0 0 264 48" fill="none" xmlns="http://www.w3.org/2000/svg">
<g filter="url(#filter0_d_1_848)">
<path d="M1 12C1 5.37258 6.37258 0 13 0H251C257.627 0 263 5.37258 263 12V34C263 40.6274 257.627 46 251 46H13C6.37258 46 1 40.6274 1 34V12Z" fill="#2684FF"/>
</g>
<g clip-path="url(#clip0_1_848)">
<path d="M34.8794 9.2915H34.869C34.7434 9.29216 34.6195 9.32332 34.5056 9.38286C34.3917 9.4424 34.2905 9.52891 34.2091 9.63647C34.1277 9.74404 34.0678 9.87012 34.0337 10.0061C33.9996 10.1421 33.992 10.2847 34.0114 10.4243L37.697 35.5998C37.7914 36.2333 38.2809 36.7023 38.8523 36.7082H56.5369C56.7448 36.7105 56.9465 36.6291 57.1057 36.4786C57.2649 36.3282 57.371 36.1187 57.4049 35.888L61.0905 10.429C61.1099 10.2895 61.1023 10.1469 61.0683 10.011C61.0342 9.87515 60.9745 9.74913 60.8932 9.64158C60.8118 9.53403 60.7108 9.4475 60.5971 9.38789C60.4833 9.32828 60.3594 9.29699 60.2339 9.29617H60.2225L34.8794 9.2915ZM50.4018 27.4857H44.7572L43.2286 18.5035H51.7696L50.4007 27.4868L50.4018 27.4857Z" fill="white"/>
</g>
<path d="M87.582 23.6846C87.5046 24.7555 87.1081 25.5986 86.3926 26.2139C85.6816 26.8291 84.7428 27.1367 83.5762 27.1367C82.3001 27.1367 81.2952 26.7083 80.5615 25.8516C79.8324 24.9902 79.4678 23.8099 79.4678 22.3105V21.7021C79.4678 20.7451 79.6364 19.902 79.9736 19.1729C80.3109 18.4437 80.7917 17.8854 81.416 17.498C82.0449 17.1061 82.7741 16.9102 83.6035 16.9102C84.752 16.9102 85.6771 17.2178 86.3789 17.833C87.0807 18.4482 87.4863 19.3118 87.5957 20.4238H85.5449C85.4948 19.7812 85.3148 19.3164 85.0049 19.0293C84.6995 18.7376 84.2324 18.5918 83.6035 18.5918C82.9199 18.5918 82.4072 18.8379 82.0654 19.3301C81.7282 19.8177 81.555 20.5765 81.5459 21.6064V22.3584C81.5459 23.4339 81.7077 24.2201 82.0312 24.7168C82.3594 25.2135 82.8743 25.4619 83.5762 25.4619C84.2096 25.4619 84.6813 25.3184 84.9912 25.0312C85.3057 24.7396 85.4857 24.2907 85.5312 23.6846H87.582ZM88.4912 23.2334C88.4912 22.4997 88.6325 21.8457 88.915 21.2715C89.1976 20.6973 89.6032 20.2529 90.1318 19.9385C90.665 19.624 91.2826 19.4668 91.9844 19.4668C92.9824 19.4668 93.7959 19.7721 94.4248 20.3828C95.0583 20.9935 95.4115 21.8229 95.4844 22.8711L95.498 23.377C95.498 24.5117 95.1813 25.4232 94.5479 26.1113C93.9144 26.7949 93.0645 27.1367 91.998 27.1367C90.9316 27.1367 90.0794 26.7949 89.4414 26.1113C88.8079 25.4277 88.4912 24.498 88.4912 23.3223V23.2334ZM90.4668 23.377C90.4668 24.0788 90.599 24.6165 90.8633 24.9902C91.1276 25.3594 91.5059 25.5439 91.998 25.5439C92.4766 25.5439 92.8503 25.3617 93.1191 24.9971C93.388 24.6279 93.5225 24.04 93.5225 23.2334C93.5225 22.5452 93.388 22.012 93.1191 21.6338C92.8503 21.2555 92.472 21.0664 91.9844 21.0664C91.5013 21.0664 91.1276 21.2555 90.8633 21.6338C90.599 22.0075 90.4668 22.5885 90.4668 23.377ZM98.5332 19.6035L98.5947 20.458C99.1234 19.7972 99.832 19.4668 100.721 19.4668C101.505 19.4668 102.088 19.6969 102.471 20.1572C102.854 20.6175 103.049 21.3057 103.059 22.2217V27H101.083V22.2695C101.083 21.8503 100.992 21.5472 100.81 21.3604C100.627 21.1689 100.324 21.0732 99.9004 21.0732C99.3444 21.0732 98.9274 21.3102 98.6494 21.7842V27H96.6738V19.6035H98.5332ZM106.928 17.7852V19.6035H108.192V21.0527H106.928V24.7441C106.928 25.0176 106.98 25.2135 107.085 25.332C107.19 25.4505 107.39 25.5098 107.687 25.5098C107.905 25.5098 108.099 25.4938 108.268 25.4619V26.959C107.88 27.0775 107.481 27.1367 107.071 27.1367C105.686 27.1367 104.979 26.4372 104.952 25.0381V21.0527H103.872V19.6035H104.952V17.7852H106.928ZM111.378 27H109.396V19.6035H111.378V27ZM109.279 17.6895C109.279 17.3932 109.377 17.1494 109.573 16.958C109.774 16.7666 110.045 16.6709 110.387 16.6709C110.724 16.6709 110.993 16.7666 111.193 16.958C111.394 17.1494 111.494 17.3932 111.494 17.6895C111.494 17.9902 111.392 18.2363 111.187 18.4277C110.986 18.6191 110.719 18.7148 110.387 18.7148C110.054 18.7148 109.785 18.6191 109.58 18.4277C109.38 18.2363 109.279 17.9902 109.279 17.6895ZM114.83 19.6035L114.892 20.458C115.42 19.7972 116.129 19.4668 117.018 19.4668C117.801 19.4668 118.385 19.6969 118.768 20.1572C119.15 20.6175 119.346 21.3057 119.355 22.2217V27H117.38V22.2695C117.38 21.8503 117.289 21.5472 117.106 21.3604C116.924 21.1689 116.621 21.0732 116.197 21.0732C115.641 21.0732 115.224 21.3102 114.946 21.7842V27H112.971V19.6035H114.83ZM125.289 26.248C124.801 26.8405 124.127 27.1367 123.266 27.1367C122.473 27.1367 121.867 26.9089 121.447 26.4531C121.033 25.9974 120.821 25.3298 120.812 24.4502V19.6035H122.787V24.3818C122.787 25.152 123.138 25.5371 123.84 25.5371C124.51 25.5371 124.97 25.3047 125.221 24.8398V19.6035H127.203V27H125.344L125.289 26.248ZM132.098 27.1367C131.013 27.1367 130.129 26.804 129.445 26.1387C128.766 25.4733 128.427 24.5869 128.427 23.4795V23.2881C128.427 22.5452 128.57 21.8822 128.857 21.2988C129.145 20.7109 129.55 20.2598 130.074 19.9453C130.603 19.6263 131.204 19.4668 131.879 19.4668C132.891 19.4668 133.686 19.7858 134.265 20.4238C134.848 21.0618 135.14 21.9665 135.14 23.1377V23.9443H130.43C130.493 24.4274 130.685 24.8148 131.004 25.1064C131.327 25.3981 131.735 25.5439 132.228 25.5439C132.989 25.5439 133.583 25.2682 134.012 24.7168L134.982 25.8037C134.686 26.223 134.285 26.5511 133.779 26.7881C133.273 27.0205 132.713 27.1367 132.098 27.1367ZM131.872 21.0664C131.48 21.0664 131.161 21.1986 130.915 21.4629C130.674 21.7272 130.519 22.1055 130.45 22.5977H133.198V22.4404C133.189 22.0029 133.071 21.6657 132.843 21.4287C132.615 21.1872 132.291 21.0664 131.872 21.0664ZM146.187 24.3135L147.157 19.6035H149.064L147.178 27H145.523L144.122 22.3447L142.721 27H141.073L139.187 19.6035H141.094L142.058 24.3066L143.411 19.6035H144.84L146.187 24.3135ZM152.134 27H150.151V19.6035H152.134V27ZM150.035 17.6895C150.035 17.3932 150.133 17.1494 150.329 16.958C150.53 16.7666 150.801 16.6709 151.143 16.6709C151.48 16.6709 151.749 16.7666 151.949 16.958C152.15 17.1494 152.25 17.3932 152.25 17.6895C152.25 17.9902 152.147 18.2363 151.942 18.4277C151.742 18.6191 151.475 18.7148 151.143 18.7148C150.81 18.7148 150.541 18.6191 150.336 18.4277C150.135 18.2363 150.035 17.9902 150.035 17.6895ZM156.133 17.7852V19.6035H157.397V21.0527H156.133V24.7441C156.133 25.0176 156.185 25.2135 156.29 25.332C156.395 25.4505 156.595 25.5098 156.892 25.5098C157.11 25.5098 157.304 25.4938 157.473 25.4619V26.959C157.085 27.0775 156.687 27.1367 156.276 27.1367C154.891 27.1367 154.185 26.4372 154.157 25.0381V21.0527H153.077V19.6035H154.157V17.7852H156.133ZM160.426 20.4102C160.95 19.7812 161.608 19.4668 162.401 19.4668C164.006 19.4668 164.819 20.3988 164.842 22.2627V27H162.866V22.3174C162.866 21.8936 162.775 21.5814 162.593 21.3809C162.41 21.1758 162.107 21.0732 161.684 21.0732C161.105 21.0732 160.686 21.2965 160.426 21.7432V27H158.45V16.5H160.426V20.4102ZM169.948 27V17.0469H173.435C174.642 17.0469 175.558 17.2793 176.183 17.7441C176.807 18.2044 177.119 18.8812 177.119 19.7744C177.119 20.262 176.994 20.6927 176.743 21.0664C176.493 21.4355 176.144 21.7067 175.697 21.8799C176.208 22.0075 176.609 22.265 176.9 22.6523C177.197 23.0397 177.345 23.5137 177.345 24.0742C177.345 25.0312 177.039 25.7559 176.429 26.248C175.818 26.7402 174.948 26.9909 173.817 27H169.948ZM171.999 22.666V25.3525H173.756C174.239 25.3525 174.615 25.2386 174.884 25.0107C175.157 24.7783 175.294 24.4593 175.294 24.0537C175.294 23.1423 174.822 22.6797 173.879 22.666H171.999ZM171.999 21.2168H173.517C174.551 21.1986 175.068 20.7861 175.068 19.9795C175.068 19.5283 174.936 19.2048 174.672 19.0088C174.412 18.8083 174 18.708 173.435 18.708H171.999V21.2168ZM180.845 27H178.862V19.6035H180.845V27ZM178.746 17.6895C178.746 17.3932 178.844 17.1494 179.04 16.958C179.241 16.7666 179.512 16.6709 179.854 16.6709C180.191 16.6709 180.46 16.7666 180.66 16.958C180.861 17.1494 180.961 17.3932 180.961 17.6895C180.961 17.9902 180.858 18.2363 180.653 18.4277C180.453 18.6191 180.186 18.7148 179.854 18.7148C179.521 18.7148 179.252 18.6191 179.047 18.4277C178.846 18.2363 178.746 17.9902 178.746 17.6895ZM184.844 17.7852V19.6035H186.108V21.0527H184.844V24.7441C184.844 25.0176 184.896 25.2135 185.001 25.332C185.106 25.4505 185.306 25.5098 185.603 25.5098C185.821 25.5098 186.015 25.4938 186.184 25.4619V26.959C185.796 27.0775 185.397 27.1367 184.987 27.1367C183.602 27.1367 182.896 26.4372 182.868 25.0381V21.0527H181.788V19.6035H182.868V17.7852H184.844ZM193.874 23.3701C193.874 24.555 193.621 25.4801 193.115 26.1455C192.609 26.8063 191.903 27.1367 190.996 27.1367C190.194 27.1367 189.554 26.8291 189.075 26.2139L188.986 27H187.209V16.5H189.185V20.2666C189.64 19.7334 190.24 19.4668 190.982 19.4668C191.885 19.4668 192.591 19.7995 193.102 20.4648C193.617 21.1257 193.874 22.0576 193.874 23.2607V23.3701ZM191.898 23.2266C191.898 22.4792 191.78 21.9346 191.543 21.5928C191.306 21.2464 190.953 21.0732 190.483 21.0732C189.854 21.0732 189.422 21.3307 189.185 21.8457V24.7646C189.426 25.2842 189.864 25.5439 190.497 25.5439C191.135 25.5439 191.554 25.2295 191.755 24.6006C191.851 24.2998 191.898 23.8418 191.898 23.2266ZM199.527 26.248C199.04 26.8405 198.365 27.1367 197.504 27.1367C196.711 27.1367 196.105 26.9089 195.686 26.4531C195.271 25.9974 195.059 25.3298 195.05 24.4502V19.6035H197.025V24.3818C197.025 25.152 197.376 25.5371 198.078 25.5371C198.748 25.5371 199.208 25.3047 199.459 24.8398V19.6035H201.441V27H199.582L199.527 26.248ZM206.008 25.5439C206.372 25.5439 206.669 25.4437 206.896 25.2432C207.124 25.0426 207.243 24.776 207.252 24.4434H209.104C209.1 24.9447 208.963 25.4049 208.694 25.8242C208.425 26.2389 208.056 26.5625 207.587 26.7949C207.122 27.0228 206.607 27.1367 206.042 27.1367C204.985 27.1367 204.151 26.8018 203.54 26.1318C202.929 25.4574 202.624 24.5277 202.624 23.3428V23.2129C202.624 22.0736 202.927 21.1644 203.533 20.4854C204.139 19.8063 204.971 19.4668 206.028 19.4668C206.953 19.4668 207.694 19.7311 208.25 20.2598C208.811 20.7839 209.095 21.4834 209.104 22.3584H207.252C207.243 21.9756 207.124 21.6657 206.896 21.4287C206.669 21.1872 206.368 21.0664 205.994 21.0664C205.534 21.0664 205.185 21.235 204.948 21.5723C204.716 21.9049 204.6 22.4473 204.6 23.1992V23.4043C204.6 24.1654 204.716 24.7122 204.948 25.0449C205.181 25.3776 205.534 25.5439 206.008 25.5439ZM212.919 24.0332L212.208 24.7441V27H210.232V16.5H212.208V22.3174L212.591 21.8252L214.484 19.6035H216.856L214.184 22.6865L217.089 27H214.819L212.919 24.0332ZM220.979 27.1367C219.894 27.1367 219.01 26.804 218.326 26.1387C217.647 25.4733 217.308 24.5869 217.308 23.4795V23.2881C217.308 22.5452 217.451 21.8822 217.738 21.2988C218.025 20.7109 218.431 20.2598 218.955 19.9453C219.484 19.6263 220.085 19.4668 220.76 19.4668C221.771 19.4668 222.567 19.7858 223.146 20.4238C223.729 21.0618 224.021 21.9665 224.021 23.1377V23.9443H219.311C219.374 24.4274 219.566 24.8148 219.885 25.1064C220.208 25.3981 220.616 25.5439 221.108 25.5439C221.869 25.5439 222.464 25.2682 222.893 24.7168L223.863 25.8037C223.567 26.223 223.166 26.5511 222.66 26.7881C222.154 27.0205 221.594 27.1367 220.979 27.1367ZM220.753 21.0664C220.361 21.0664 220.042 21.1986 219.796 21.4629C219.554 21.7272 219.399 22.1055 219.331 22.5977H222.079V22.4404C222.07 22.0029 221.951 21.6657 221.724 21.4287C221.496 21.1872 221.172 21.0664 220.753 21.0664ZM227.514 17.7852V19.6035H228.778V21.0527H227.514V24.7441C227.514 25.0176 227.566 25.2135 227.671 25.332C227.776 25.4505 227.976 25.5098 228.272 25.5098C228.491 25.5098 228.685 25.4938 228.854 25.4619V26.959C228.466 27.0775 228.067 27.1367 227.657 27.1367C226.272 27.1367 225.565 26.4372 225.538 25.0381V21.0527H224.458V19.6035H225.538V17.7852H227.514Z" fill="white"/>
<defs>
<filter id="filter0_d_1_848" x="0" y="0" width="264" height="48" filterUnits="userSpaceOnUse" color-interpolation-filters="sRGB">
<feFlood flood-opacity="0" result="BackgroundImageFix"/>
<feColorMatrix in="SourceAlpha" type="matrix" values="0 0 0 0 0 0 0 0 0 0 0 0 0 0 0 0 0 0 127 0" result="hardAlpha"/>
<feOffset dy="1"/>
<feGaussianBlur stdDeviation="0.5"/>
<feColorMatrix type="matrix" values="0 0 0 0 0 0 0 0 0 0 0 0 0 0 0 0 0 0 0.1 0"/>
<feBlend mode="normal" in2="BackgroundImageFix" result="effect1_dropShadow_1_848"/>
<feBlend mode="normal" in="SourceGraphic" in2="effect1_dropShadow_1_848" result="shape"/>
</filter>
<clipPath id="clip0_1_848">
<rect width="28" height="28" fill="white" transform="translate(34 9)"/>
</clipPath>
</defs>
</svg>
