<svg width="264" height="48" viewBox="0 0 264 48" fill="none" xmlns="http://www.w3.org/2000/svg">
<g filter="url(#filter0_d_1_837)">
<path d="M1 12C1 5.37258 6.37258 0 13 0H251C257.627 0 263 5.37258 263 12V34C263 40.6274 257.627 46 251 46H13C6.37258 46 1 40.6274 1 34V12Z" fill="#FC6D26"/>
</g>
<g clip-path="url(#clip0_1_837)">
<path d="M47.6108 36.2141L42.596 19.9541H52.6181L47.6108 36.2141Z" fill="white"/>
<path d="M59.6443 19.9541L61.1721 24.8941C61.3103 25.3431 61.1609 25.8381 60.796 26.1171L47.6117 36.2141L59.6443 19.9541Z" fill="white" fill-opacity="0.65"/>
<path d="M59.6443 19.9541H52.6191L55.6431 10.1611C55.7971 9.66113 56.4719 9.66113 56.6324 10.1611L59.6443 19.9541Z" fill="white"/>
<path d="M35.5727 19.9541L34.0514 24.8941C33.9132 25.3431 34.0626 25.8381 34.4275 26.1171L47.6127 36.2141L35.5727 19.9541Z" fill="white" fill-opacity="0.65"/>
<path d="M35.5727 19.9541H42.596L39.5795 10.1611C39.4245 9.66113 38.7507 9.66113 38.5901 10.1611L35.5727 19.9541Z" fill="white"/>
<path d="M47.6127 36.2141L42.5979 19.9541H35.5727L47.6127 36.2141Z" fill="white" fill-opacity="0.85"/>
<path d="M47.6117 36.2141L59.6443 19.9541H52.6191L47.6117 36.2141Z" fill="white" fill-opacity="0.85"/>
</g>
<path d="M87.125 23.6846C87.0475 24.7555 86.651 25.5986 85.9355 26.2139C85.2246 26.8291 84.2858 27.1367 83.1191 27.1367C81.8431 27.1367 80.8382 26.7083 80.1045 25.8516C79.3753 24.9902 79.0107 23.8099 79.0107 22.3105V21.7021C79.0107 20.7451 79.1794 19.902 79.5166 19.1729C79.8538 18.4437 80.3346 17.8854 80.959 17.498C81.5879 17.1061 82.3171 16.9102 83.1465 16.9102C84.2949 16.9102 85.2201 17.2178 85.9219 17.833C86.6237 18.4482 87.0293 19.3118 87.1387 20.4238H85.0879C85.0378 19.7812 84.8577 19.3164 84.5479 19.0293C84.2425 18.7376 83.7754 18.5918 83.1465 18.5918C82.4629 18.5918 81.9502 18.8379 81.6084 19.3301C81.2712 19.8177 81.098 20.5765 81.0889 21.6064V22.3584C81.0889 23.4339 81.2507 24.2201 81.5742 24.7168C81.9023 25.2135 82.4173 25.4619 83.1191 25.4619C83.7526 25.4619 84.2243 25.3184 84.5342 25.0312C84.8486 24.7396 85.0286 24.2907 85.0742 23.6846H87.125ZM88.0342 23.2334C88.0342 22.4997 88.1755 21.8457 88.458 21.2715C88.7406 20.6973 89.1462 20.2529 89.6748 19.9385C90.208 19.624 90.8255 19.4668 91.5273 19.4668C92.5254 19.4668 93.3389 19.7721 93.9678 20.3828C94.6012 20.9935 94.9544 21.8229 95.0273 22.8711L95.041 23.377C95.041 24.5117 94.7243 25.4232 94.0908 26.1113C93.4574 26.7949 92.6074 27.1367 91.541 27.1367C90.4746 27.1367 89.6224 26.7949 88.9844 26.1113C88.3509 25.4277 88.0342 24.498 88.0342 23.3223V23.2334ZM90.0098 23.377C90.0098 24.0788 90.1419 24.6165 90.4062 24.9902C90.6706 25.3594 91.0488 25.5439 91.541 25.5439C92.0195 25.5439 92.3932 25.3617 92.6621 24.9971C92.931 24.6279 93.0654 24.04 93.0654 23.2334C93.0654 22.5452 92.931 22.012 92.6621 21.6338C92.3932 21.2555 92.015 21.0664 91.5273 21.0664C91.0443 21.0664 90.6706 21.2555 90.4062 21.6338C90.1419 22.0075 90.0098 22.5885 90.0098 23.377ZM98.0762 19.6035L98.1377 20.458C98.6663 19.7972 99.375 19.4668 100.264 19.4668C101.048 19.4668 101.631 19.6969 102.014 20.1572C102.396 20.6175 102.592 21.3057 102.602 22.2217V27H100.626V22.2695C100.626 21.8503 100.535 21.5472 100.353 21.3604C100.17 21.1689 99.8672 21.0732 99.4434 21.0732C98.8874 21.0732 98.4704 21.3102 98.1924 21.7842V27H96.2168V19.6035H98.0762ZM106.471 17.7852V19.6035H107.735V21.0527H106.471V24.7441C106.471 25.0176 106.523 25.2135 106.628 25.332C106.733 25.4505 106.933 25.5098 107.229 25.5098C107.448 25.5098 107.642 25.4938 107.811 25.4619V26.959C107.423 27.0775 107.024 27.1367 106.614 27.1367C105.229 27.1367 104.522 26.4372 104.495 25.0381V21.0527H103.415V19.6035H104.495V17.7852H106.471ZM110.921 27H108.938V19.6035H110.921V27ZM108.822 17.6895C108.822 17.3932 108.92 17.1494 109.116 16.958C109.317 16.7666 109.588 16.6709 109.93 16.6709C110.267 16.6709 110.536 16.7666 110.736 16.958C110.937 17.1494 111.037 17.3932 111.037 17.6895C111.037 17.9902 110.935 18.2363 110.729 18.4277C110.529 18.6191 110.262 18.7148 109.93 18.7148C109.597 18.7148 109.328 18.6191 109.123 18.4277C108.923 18.2363 108.822 17.9902 108.822 17.6895ZM114.373 19.6035L114.435 20.458C114.963 19.7972 115.672 19.4668 116.561 19.4668C117.344 19.4668 117.928 19.6969 118.311 20.1572C118.693 20.6175 118.889 21.3057 118.898 22.2217V27H116.923V22.2695C116.923 21.8503 116.832 21.5472 116.649 21.3604C116.467 21.1689 116.164 21.0732 115.74 21.0732C115.184 21.0732 114.767 21.3102 114.489 21.7842V27H112.514V19.6035H114.373ZM124.832 26.248C124.344 26.8405 123.67 27.1367 122.809 27.1367C122.016 27.1367 121.41 26.9089 120.99 26.4531C120.576 25.9974 120.364 25.3298 120.354 24.4502V19.6035H122.33V24.3818C122.33 25.152 122.681 25.5371 123.383 25.5371C124.053 25.5371 124.513 25.3047 124.764 24.8398V19.6035H126.746V27H124.887L124.832 26.248ZM131.641 27.1367C130.556 27.1367 129.672 26.804 128.988 26.1387C128.309 25.4733 127.97 24.5869 127.97 23.4795V23.2881C127.97 22.5452 128.113 21.8822 128.4 21.2988C128.688 20.7109 129.093 20.2598 129.617 19.9453C130.146 19.6263 130.747 19.4668 131.422 19.4668C132.434 19.4668 133.229 19.7858 133.808 20.4238C134.391 21.0618 134.683 21.9665 134.683 23.1377V23.9443H129.973C130.036 24.4274 130.228 24.8148 130.547 25.1064C130.87 25.3981 131.278 25.5439 131.771 25.5439C132.532 25.5439 133.126 25.2682 133.555 24.7168L134.525 25.8037C134.229 26.223 133.828 26.5511 133.322 26.7881C132.816 27.0205 132.256 27.1367 131.641 27.1367ZM131.415 21.0664C131.023 21.0664 130.704 21.1986 130.458 21.4629C130.216 21.7272 130.062 22.1055 129.993 22.5977H132.741V22.4404C132.732 22.0029 132.614 21.6657 132.386 21.4287C132.158 21.1872 131.834 21.0664 131.415 21.0664ZM145.729 24.3135L146.7 19.6035H148.607L146.721 27H145.066L143.665 22.3447L142.264 27H140.616L138.729 19.6035H140.637L141.601 24.3066L142.954 19.6035H144.383L145.729 24.3135ZM151.677 27H149.694V19.6035H151.677V27ZM149.578 17.6895C149.578 17.3932 149.676 17.1494 149.872 16.958C150.073 16.7666 150.344 16.6709 150.686 16.6709C151.023 16.6709 151.292 16.7666 151.492 16.958C151.693 17.1494 151.793 17.3932 151.793 17.6895C151.793 17.9902 151.69 18.2363 151.485 18.4277C151.285 18.6191 151.018 18.7148 150.686 18.7148C150.353 18.7148 150.084 18.6191 149.879 18.4277C149.678 18.2363 149.578 17.9902 149.578 17.6895ZM155.676 17.7852V19.6035H156.94V21.0527H155.676V24.7441C155.676 25.0176 155.728 25.2135 155.833 25.332C155.938 25.4505 156.138 25.5098 156.435 25.5098C156.653 25.5098 156.847 25.4938 157.016 25.4619V26.959C156.628 27.0775 156.229 27.1367 155.819 27.1367C154.434 27.1367 153.728 26.4372 153.7 25.0381V21.0527H152.62V19.6035H153.7V17.7852H155.676ZM159.969 20.4102C160.493 19.7812 161.151 19.4668 161.944 19.4668C163.549 19.4668 164.362 20.3988 164.385 22.2627V27H162.409V22.3174C162.409 21.8936 162.318 21.5814 162.136 21.3809C161.953 21.1758 161.65 21.0732 161.227 21.0732C160.648 21.0732 160.229 21.2965 159.969 21.7432V27H157.993V16.5H159.969V20.4102ZM177.366 25.7422C176.997 26.1842 176.475 26.5283 175.801 26.7744C175.126 27.016 174.379 27.1367 173.559 27.1367C172.697 27.1367 171.941 26.9499 171.289 26.5762C170.642 26.1979 170.141 25.651 169.785 24.9355C169.434 24.2201 169.254 23.3792 169.245 22.4131V21.7363C169.245 20.7428 169.411 19.8838 169.744 19.1592C170.081 18.43 170.564 17.874 171.193 17.4912C171.827 17.1038 172.567 16.9102 173.415 16.9102C174.595 16.9102 175.518 17.1927 176.184 17.7578C176.849 18.3184 177.243 19.1364 177.366 20.2119H175.37C175.279 19.6423 175.076 19.2253 174.762 18.9609C174.452 18.6966 174.023 18.5645 173.477 18.5645C172.779 18.5645 172.248 18.8265 171.884 19.3506C171.519 19.8747 171.335 20.654 171.33 21.6885V22.3242C171.33 23.3678 171.528 24.1562 171.925 24.6895C172.321 25.2227 172.902 25.4893 173.668 25.4893C174.438 25.4893 174.987 25.3252 175.315 24.9971V23.2812H173.449V21.7705H177.366V25.7422ZM180.989 27H179.007V19.6035H180.989V27ZM178.891 17.6895C178.891 17.3932 178.989 17.1494 179.185 16.958C179.385 16.7666 179.656 16.6709 179.998 16.6709C180.335 16.6709 180.604 16.7666 180.805 16.958C181.005 17.1494 181.105 17.3932 181.105 17.6895C181.105 17.9902 181.003 18.2363 180.798 18.4277C180.597 18.6191 180.331 18.7148 179.998 18.7148C179.665 18.7148 179.396 18.6191 179.191 18.4277C178.991 18.2363 178.891 17.9902 178.891 17.6895ZM184.988 17.7852V19.6035H186.253V21.0527H184.988V24.7441C184.988 25.0176 185.041 25.2135 185.146 25.332C185.25 25.4505 185.451 25.5098 185.747 25.5098C185.966 25.5098 186.16 25.4938 186.328 25.4619V26.959C185.941 27.0775 185.542 27.1367 185.132 27.1367C183.746 27.1367 183.04 26.4372 183.013 25.0381V21.0527H181.933V19.6035H183.013V17.7852H184.988ZM189.534 25.3525H193.889V27H187.483V17.0469H189.534V25.3525ZM199.228 27C199.136 26.8223 199.07 26.6012 199.029 26.3369C198.551 26.8701 197.929 27.1367 197.163 27.1367C196.438 27.1367 195.837 26.9271 195.358 26.5078C194.884 26.0885 194.647 25.5599 194.647 24.9219C194.647 24.138 194.937 23.5365 195.516 23.1172C196.099 22.6979 196.94 22.486 198.038 22.4814H198.947V22.0576C198.947 21.7158 198.858 21.4424 198.681 21.2373C198.507 21.0322 198.232 20.9297 197.854 20.9297C197.521 20.9297 197.259 21.0094 197.067 21.1689C196.881 21.3285 196.787 21.5472 196.787 21.8252H194.812C194.812 21.3968 194.944 21.0003 195.208 20.6357C195.472 20.2712 195.846 19.9863 196.329 19.7812C196.812 19.5716 197.354 19.4668 197.956 19.4668C198.868 19.4668 199.59 19.6969 200.123 20.1572C200.661 20.613 200.93 21.2555 200.93 22.085V25.291C200.934 25.9928 201.032 26.5238 201.224 26.8838V27H199.228ZM197.594 25.626C197.885 25.626 198.154 25.5622 198.4 25.4346C198.646 25.3024 198.829 25.127 198.947 24.9082V23.6367H198.209C197.22 23.6367 196.694 23.9785 196.63 24.6621L196.623 24.7783C196.623 25.0244 196.71 25.2272 196.883 25.3867C197.056 25.5462 197.293 25.626 197.594 25.626ZM209.112 23.3701C209.112 24.555 208.859 25.4801 208.354 26.1455C207.848 26.8063 207.141 27.1367 206.234 27.1367C205.432 27.1367 204.792 26.8291 204.313 26.2139L204.225 27H202.447V16.5H204.423V20.2666C204.879 19.7334 205.478 19.4668 206.221 19.4668C207.123 19.4668 207.829 19.7995 208.34 20.4648C208.855 21.1257 209.112 22.0576 209.112 23.2607V23.3701ZM207.137 23.2266C207.137 22.4792 207.018 21.9346 206.781 21.5928C206.544 21.2464 206.191 21.0732 205.722 21.0732C205.093 21.0732 204.66 21.3307 204.423 21.8457V24.7646C204.664 25.2842 205.102 25.5439 205.735 25.5439C206.373 25.5439 206.793 25.2295 206.993 24.6006C207.089 24.2998 207.137 23.8418 207.137 23.2266Z" fill="white"/>
<defs>
<filter id="filter0_d_1_837" x="0" y="0" width="264" height="48" filterUnits="userSpaceOnUse" color-interpolation-filters="sRGB">
<feFlood flood-opacity="0" result="BackgroundImageFix"/>
<feColorMatrix in="SourceAlpha" type="matrix" values="0 0 0 0 0 0 0 0 0 0 0 0 0 0 0 0 0 0 127 0" result="hardAlpha"/>
<feOffset dy="1"/>
<feGaussianBlur stdDeviation="0.5"/>
<feColorMatrix type="matrix" values="0 0 0 0 0 0 0 0 0 0 0 0 0 0 0 0 0 0 0.1 0"/>
<feBlend mode="normal" in2="BackgroundImageFix" result="effect1_dropShadow_1_837"/>
<feBlend mode="normal" in="SourceGraphic" in2="effect1_dropShadow_1_837" result="shape"/>
</filter>
<clipPath id="clip0_1_837">
<rect width="28" height="28" fill="white" transform="translate(34 9)"/>
</clipPath>
</defs>
</svg>
